HIERARCHY
ROOT ROOT
{
	OFFSET 0.000000 56.020000 -5.659234
	CHANNELS 6 Xposition Yposition Zposition Xrotation Yrotation Zrotation 
	JOINT C_spine0001_bind_JNT
	{
		OFFSET 0.000000 1.618999 0.000000
		CHANNELS 3 Xrotation Yrotation Zrotation
		JOINT C_spine0002_bind_JNT
		{
			OFFSET 0.000000 4.942001 0.000001
			CHANNELS 3 Xrotation Yrotation Zrotation
			JOINT C_spine0003_bind_JNT
			{
				OFFSET 0.000000 4.942001 -0.000000
				CHANNELS 3 Xrotation Yrotation Zrotation
				JOINT C_neck0001_bind_JNT
				{
					OFFSET 0.000000 17.026009 -0.000000
					CHANNELS 3 Xrotation Yrotation Zrotation
					JOINT C_neck0002_bind_JNT
					{
						OFFSET 0.000000 3.249985 0.000000
						CHANNELS 3 Xrotation Yrotation Zrotation
						JOINT C_head_bind_JNT
						{
							OFFSET 0.000000 5.278008 0.000000
							CHANNELS 3 Xrotation Yrotation Zrotation
							End Site
							{
								OFFSET 0.000000 0.000000 0.000000
							}
						}
					}
				}
				JOINT L_clavicle_bind_JNT
				{
					OFFSET 4.590000 12.067001 0.834000
					CHANNELS 3 Xrotation Yrotation Zrotation
					JOINT L_armUpper0001_bind_JNT
					{
						OFFSET 7.812635 0.512001 -3.452945
						CHANNELS 3 Xrotation Yrotation Zrotation
						JOINT L_armLower0001_bind_JNT
						{
							OFFSET 15.265892 -6.552116 -0.058157
							CHANNELS 3 Xrotation Yrotation Zrotation
							JOINT L_hand0001_bind_JNT
							{
								OFFSET 14.747667 -6.369995 5.049225
								CHANNELS 3 Xrotation Yrotation Zrotation
								End Site
								{
									OFFSET 0.000000 0.000000 0.000000
								}
							}
						}
					}
				}
				JOINT R_clavicle_bind_JNT
				{
					OFFSET -4.590000 12.067001 0.834000
					CHANNELS 3 Xrotation Yrotation Zrotation
					JOINT R_armUpper0001_bind_JNT
					{
						OFFSET -7.812635 0.512001 -3.452945
						CHANNELS 3 Xrotation Yrotation Zrotation
						JOINT R_armLower0001_bind_JNT
						{
							OFFSET -15.265890 -6.552124 -0.058160
							CHANNELS 3 Xrotation Yrotation Zrotation
							JOINT R_hand0001_bind_JNT
							{
								OFFSET -14.746784 -6.369629 5.048937
								CHANNELS 3 Xrotation Yrotation Zrotation
								End Site
								{
									OFFSET 0.000000 0.000000 0.000000
								}
							}
						}
					}
				}
			}
		}
	}
	JOINT C_pelvis0001_bind_JNT
	{
		OFFSET -0.000000 0.000000 0.000000
		CHANNELS 3 Xrotation Yrotation Zrotation
		JOINT L_legUpper0001_bind_JNT
		{
			OFFSET 6.599999 -6.027000 0.539000
			CHANNELS 3 Xrotation Yrotation Zrotation
			JOINT L_legLower0001_bind_JNT
			{
				OFFSET -0.140713 -19.187443 0.040261
				CHANNELS 3 Xrotation Yrotation Zrotation
				JOINT L_foot0001_bind_JNT
				{
					OFFSET -0.132215 -18.028637 -1.138370
					CHANNELS 3 Xrotation Yrotation Zrotation
					JOINT L_foot0002_bind_JNT
					{
						OFFSET 0.007014 -4.693133 9.886524
						CHANNELS 3 Xrotation Yrotation Zrotation
						End Site
						{
							OFFSET 0.000000 0.000000 0.000000
						}
					}
				}
			}
		}
		JOINT R_legUpper0001_bind_JNT
		{
			OFFSET -6.599999 -6.027000 0.539000
			CHANNELS 3 Xrotation Yrotation Zrotation
			JOINT R_legLower0001_bind_JNT
			{
				OFFSET 0.140710 -19.187164 0.040550
				CHANNELS 3 Xrotation Yrotation Zrotation
				JOINT R_foot0001_bind_JNT
				{
					OFFSET 0.132215 -18.028633 -1.138362
					CHANNELS 3 Xrotation Yrotation Zrotation
					JOINT R_foot0002_bind_JNT
					{
						OFFSET -0.007014 -4.693128 9.886505
						CHANNELS 3 Xrotation Yrotation Zrotation
						End Site
						{
							OFFSET 0.000000 0.000000 0.000000
						}
					}
				}
			}
		}
	}
}
MOTION
Frames: 16
Frame Time: 0.033333
-1.307360 46.316158 64.224678 0.036526 -16.138397 -0.046552 22.066572 -1.112358 -14.273734 -0.128514 3.650123 -5.697382 10.687598 1.110332 -6.610951 15.910327 0.843751 -1.919533 -0.375509 -0.090047 -0.411614 -4.908354 3.454519 -1.620142 3.061849 8.702488 16.511887 -4.588314 9.526267 -42.160076 -11.230287 -1.770859 -12.438116 -2.255156 -18.634949 -7.910405 3.498542 -3.410819 -8.508212 -32.261444 2.406740 43.157475 -53.772179 40.220657 68.299362 -10.681866 12.035368 30.419567 15.186247 -5.148179 -6.098123 -47.815617 -3.778415 5.236004 30.906977 -7.947787 3.939101 3.543990 -17.708742 -2.416858 -3.410187 -2.259785 -0.789025 -11.366111 3.576242 4.462856 30.040703 3.087521 -2.026173 -6.549348 24.126751 -0.009296 -25.571096 5.096449 -7.948195 
-1.155532 46.174870 64.773193 0.044693 -17.011990 -0.039931 23.227386 -1.148175 -14.034597 0.152228 3.622354 -5.819669 10.911709 1.297166 -6.623345 15.745564 0.531114 -1.922805 -0.597172 0.048360 -0.169117 -5.168015 3.397538 -1.375366 2.895853 8.184462 16.186142 -3.757411 8.413171 -43.002007 -10.421638 -2.335132 -12.537059 -0.641822 -17.548254 -8.390733 3.772015 -3.123989 -8.001651 -33.570465 4.162558 44.308929 -55.781521 41.160069 71.291557 -10.746059 12.347317 32.087727 15.907474 -5.595815 -5.687378 -48.920494 -2.743502 5.091702 32.199162 -7.709471 3.667180 3.191546 -16.778765 -1.616283 -3.666769 -2.361867 -0.671378 -12.771058 3.256886 3.571097 32.916874 2.526737 -2.216120 -4.680074 24.395170 0.795757 -27.959457 6.021898 -9.464796 
-1.032789 46.360519 65.410736 0.039772 -17.428816 -0.048128 23.890184 -1.429022 -13.724798 0.191772 3.787919 -5.730497 11.072685 1.370676 -6.408358 15.618265 0.413955 -1.792920 -0.304409 -0.087156 -0.372563 -5.423599 3.295526 -1.477730 2.607702 8.318383 15.787995 -3.273010 6.657932 -43.241962 -9.975558 -3.601681 -12.482545 1.103088 -16.530712 -9.272824 3.926382 -3.010309 -8.198833 -34.168858 5.103259 45.492886 -56.285831 42.283352 72.652229 -10.712936 12.395114 33.625450 16.425035 -5.886759 -5.525389 -49.074936 -2.072889 5.185839 33.022282 -7.510095 3.254032 2.661538 -16.444748 -0.808890 -3.782694 -2.315995 -0.605925 -13.998467 2.477967 2.902791 35.477249 2.476392 -2.313455 -1.786068 24.616308 0.338334 -28.485451 5.501118 -10.469351 
-0.944402 46.570484 66.012077 0.037948 -17.518066 -0.047944 23.913914 -1.838622 -13.126604 0.234339 3.697944 -5.553838 11.092353 1.536672 -6.462933 15.963237 0.353750 -1.895447 -0.574265 -0.021764 -0.462153 -5.203308 3.388333 -1.214529 2.464810 8.639789 15.891411 -2.947141 5.591514 -42.682339 -10.254394 -7.039645 -13.086734 2.706061 -15.248333 -10.460993 4.196230 -3.015747 -8.184735 -34.513504 5.913545 45.795029 -56.115849 42.999969 73.476639 -10.532450 12.873781 35.103897 16.480225 -6.504450 -5.168201 -48.247528 -1.134859 5.097822 32.719410 -7.057334 2.957679 2.450010 -15.824745 -0.628086 -3.820881 -2.583999 -0.342717 -14.858065 2.174456 1.481034 38.472324 1.847222 -2.072751 0.956881 24.845800 0.348418 -26.895142 4.618870 -11.265287 
-0.911334 46.882530 66.664612 0.043808 -17.903429 -0.041680 23.352465 -1.718635 -12.919706 0.078218 3.671130 -5.146053 10.863060 1.439744 -6.171800 16.291393 0.484326 -2.080677 -0.558946 0.201671 -0.232764 -4.793033 3.267075 -1.280635 2.585119 9.116747 15.924259 -3.004478 4.987595 -41.693806 -10.752834 -10.759530 -13.023492 3.851788 -14.317762 -12.763194 4.203544 -3.271896 -8.649432 -33.517895 5.573630 45.090454 -56.104328 43.770988 74.245750 -9.855019 12.665009 36.264130 15.904678 -6.423919 -5.153722 -46.559505 -0.782721 5.461164 31.762072 -7.244115 2.455925 2.294307 -15.258447 -0.500632 -3.853461 -2.278088 -0.380118 -15.247305 1.308466 0.478526 41.057335 1.751980 -1.742614 4.105963 23.869282 -0.755209 -24.415304 3.214654 -11.253536 
-0.869783 47.284908 67.403084 0.038695 -18.447363 -0.030247 22.056870 -1.257972 -12.538456 -0.151222 3.175052 -4.995044 10.992879 1.576560 -6.261549 16.057087 0.904801 -2.085076 -0.377361 -0.229510 -0.329815 -4.733605 3.862218 -1.031599 2.410966 9.426386 16.408670 -3.805579 4.929722 -39.179504 -11.601417 -15.885386 -13.587989 4.816009 -13.019262 -15.564464 3.878620 -3.398444 -8.988379 -32.039314 4.923050 43.498566 -56.028137 44.691219 74.008278 -9.572457 12.379352 37.354431 15.207692 -5.697748 -4.899902 -44.085197 0.024279 4.997410 29.747097 -7.110282 2.101961 2.459629 -15.060911 -0.789332 -3.500102 -2.335356 0.173327 -15.869626 0.787303 -0.594686 44.292725 0.933651 -1.770091 6.940453 23.364422 -1.387501 -22.050043 1.807491 -10.673730 
-0.965831 47.694298 68.185097 0.049321 -18.673424 -0.035096 20.870533 -1.190960 -12.461601 -0.860117 2.829378 -4.696228 10.558846 1.489879 -6.308615 16.417484 1.237361 -1.945934 -0.181502 -0.077918 0.000712 -4.423021 3.995901 -1.279812 2.085862 9.451604 16.298208 -5.617383 5.195672 -34.782562 -11.936643 -21.571218 -13.722940 5.519547 -12.054542 -19.021526 3.423292 -3.582968 -9.185443 -29.588360 3.344295 40.765301 -55.448990 46.003796 73.476471 -9.114522 11.795381 37.173714 14.198531 -5.230188 -4.832128 -41.959751 0.672965 4.827831 29.108250 -7.028329 1.780346 2.431772 -15.168324 -0.576265 -3.773023 -2.101559 0.441489 -16.233620 -0.134700 -1.887841 46.496189 0.880387 -1.987313 9.207025 21.839211 -1.368541 -19.741722 0.972122 -8.717478 
-1.037917 48.150185 68.708092 0.035635 -19.849163 -0.052233 19.239683 -0.434171 -12.430834 -1.015462 2.260496 -4.495832 10.584349 1.473659 -6.474164 15.886516 1.678754 -1.596852 -0.237966 -0.259173 -0.145037 -4.977664 4.318194 -0.984961 0.621283 8.745414 15.920725 -7.474061 5.285550 -28.848009 -13.107496 -26.699997 -14.725033 5.874790 -11.263668 -21.536793 2.288369 -2.952778 -9.053624 -27.674744 2.376802 36.863461 -53.630756 46.923256 70.497086 -8.755511 10.880910 37.246941 13.180468 -4.184259 -4.736221 -40.328365 2.102384 4.719588 28.592834 -7.406259 1.861193 2.916046 -15.362477 -0.605006 -3.911283 -2.571507 0.974124 -17.154827 -0.720533 -2.752304 48.327374 0.609626 -2.218267 10.400237 20.832355 -1.597055 -17.999697 1.127441 -6.715458 
-1.259950 48.691536 69.498741 0.052413 -20.346872 -0.029426 17.647575 -0.571833 -12.442006 -1.805971 1.886408 -4.431265 9.997123 1.139862 -6.391702 16.121496 2.093616 -1.668116 -0.017405 -0.075537 0.101917 -4.523513 4.653296 -1.347050 -0.292564 7.570190 15.198004 -10.182041 5.374273 -22.713345 -14.107181 -30.656565 -14.501423 6.741775 -10.996249 -24.606434 1.384408 -2.833619 -8.833076 -25.396097 1.912217 32.878475 -49.974880 47.410301 66.026337 -8.132678 9.961970 36.395199 11.759673 -3.809581 -5.373734 -37.124168 2.547345 5.531694 27.551588 -7.591440 1.412205 3.442141 -16.060053 -0.269361 -5.154039 -2.595992 1.562569 -18.300961 -0.328732 -2.604089 49.699673 0.383207 -1.882859 10.154020 20.664528 -1.058836 -16.353376 1.287112 -5.937117 
-1.607223 49.138744 70.414627 0.048240 -20.553566 -0.034821 15.525368 -0.544992 -12.330868 -2.233475 1.328259 -4.235087 9.381555 0.743770 -6.425761 16.186428 2.439934 -1.443839 0.224955 -0.306322 -0.085885 -4.435905 4.906316 -1.278455 -1.319271 6.432062 14.545316 -12.678835 4.092752 -17.225657 -13.312424 -32.685154 -13.034577 6.596030 -11.109509 -26.308245 0.457808 -2.366054 -8.675684 -23.285458 1.762406 29.420424 -44.209473 47.819168 58.849590 -7.865902 9.275694 36.495911 10.314339 -3.210671 -5.920810 -34.291466 3.171863 5.698604 27.399715 -8.298837 1.587813 3.021215 -16.309227 -0.518919 -5.482224 -3.170259 2.599450 -19.523008 -0.519867 -2.250814 50.203003 0.355555 -1.144337 9.169652 20.452160 -1.303861 -14.584513 1.585383 -5.529682 
-2.090112 49.467968 71.410751 0.061961 -21.304605 -0.029863 13.342866 -0.886350 -12.343190 -3.068599 1.033378 -4.057783 8.952538 0.584024 -6.452139 16.443745 2.759790 -1.139952 -0.040164 -0.208266 -0.417898 -3.365682 5.174612 -1.176633 -1.961382 5.031087 13.737859 -15.447548 3.545894 -12.536335 -11.486303 -33.629642 -10.494557 6.841972 -12.037671 -27.842989 -0.221516 -1.934111 -8.950682 -21.549906 1.353787 27.525829 -35.432880 47.154045 49.690968 -7.019139 9.048362 36.383018 8.611012 -2.867808 -6.450256 -30.273592 3.616168 6.832004 26.742174 -7.993395 1.593212 1.605531 -16.465683 -0.751345 -5.700660 -3.032801 2.824663 -20.499504 -0.921492 -1.680493 48.777950 0.252395 -0.801981 7.688924 20.959171 -0.080212 -12.069670 1.975796 -5.295868 
-2.646950 49.803585 72.537796 0.069922 -22.121899 -0.029047 10.570704 -0.770322 -12.327951 -3.410115 0.737675 -3.757816 8.400651 0.107082 -6.356523 16.533245 2.978809 -1.224889 0.179370 -0.178156 -0.415444 -2.464200 5.418905 -1.380944 -2.798535 3.987909 12.806629 -17.709200 1.221921 -8.805896 -8.587089 -32.764366 -7.485477 5.876783 -12.522077 -28.727224 -0.416672 -1.544501 -9.488712 -21.081377 1.206420 26.835730 -25.927008 44.675926 40.054852 -5.607418 9.944517 36.017998 6.989300 -2.521191 -6.925647 -26.431047 4.588155 7.633090 26.104803 -7.933631 1.966280 -0.182037 -15.985561 -1.068305 -5.814906 -2.678657 2.811150 -21.614586 -1.058479 -0.903236 46.774063 0.017185 0.120541 5.231192 20.963509 0.427690 -10.707355 3.133162 -4.380020 
-3.385360 50.105644 73.945450 0.073762 -23.124985 -0.017078 7.651845 -0.947318 -12.071886 -3.770459 0.268650 -3.798250 7.371216 0.151897 -6.489710 17.491957 3.116620 -1.081734 -0.041286 -0.372803 -0.352631 -1.665555 5.626262 -1.131424 -3.026555 3.100222 12.469349 -20.150398 0.026074 -7.354107 -5.919443 -31.540285 -5.306364 6.826976 -13.300935 -28.663324 -0.484504 -1.897922 -9.684649 -20.457634 0.457363 27.535761 -17.192644 41.731232 32.783997 -4.597095 10.661673 34.240940 5.024945 -2.083780 -7.099805 -21.587021 4.869362 8.249142 25.516388 -7.022501 1.741096 -2.539087 -15.317754 -1.558942 -5.844606 -2.798225 3.159236 -21.888350 -1.259192 -0.000043 42.263973 -0.415926 -0.124905 4.010551 21.249088 1.871965 -10.667375 3.809827 -3.132287 
-4.333251 50.198498 75.744820 0.075333 -24.151081 -0.007838 4.515619 -1.308081 -11.879624 -4.893308 -0.030977 -3.569937 6.596225 -0.143357 -6.515154 18.317816 3.436863 -1.311292 -0.107998 -0.361015 -0.466597 -0.350011 6.543381 -0.986431 -3.310893 3.092776 12.050624 -22.068623 -2.094992 -7.203510 -2.502236 -29.889875 -2.806830 6.075711 -13.111129 -28.383751 -0.211440 -2.035982 -9.880528 -20.891882 -0.599566 28.888800 -10.677119 38.836037 27.201687 -3.248392 11.250977 32.409740 3.169154 -2.199258 -6.819228 -16.841496 5.137006 8.239378 25.546000 -5.860890 1.463609 -4.428982 -14.349460 -1.307145 -7.067297 -2.626391 3.348510 -20.937748 -1.294981 0.217808 37.093666 -0.917495 -0.108885 2.225162 22.644051 2.438798 -11.630694 3.854717 -1.841444 
-5.470503 50.087421 77.832474 0.091767 -25.323013 -0.024342 0.270044 -1.135824 -11.288576 -5.551031 -0.252244 -3.711481 5.374431 0.052239 -7.190093 19.738283 3.673639 -0.966296 -0.081714 -0.570219 -0.522798 1.374188 6.732030 -0.300985 -2.544390 2.814292 12.599919 -24.212128 -2.474697 -8.168920 -0.331478 -29.720903 -2.049162 5.951287 -11.756973 -27.934523 0.538016 -2.439136 -9.409878 -20.701687 -2.215497 30.976255 -4.612669 36.719597 23.080938 -2.695412 11.551032 30.025581 0.776916 -1.869123 -5.888682 -11.748173 5.244821 8.112732 25.426546 -4.792585 0.979559 -5.887901 -13.795514 -1.912138 -8.412390 -2.642036 3.801651 -18.370068 -1.071866 -0.037882 30.762531 0.033312 -0.667376 2.081337 22.994463 2.791900 -12.097267 4.048680 -0.846233 
-6.713789 49.719196 80.013199 0.078195 -25.069447 -0.019608 -3.652816 -2.470392 -10.889442 -6.123431 -0.388845 -3.788384 4.343549 0.550029 -6.997668 20.842073 3.792081 -0.917830 -0.328104 -0.268664 -0.816525 2.980648 7.040842 -0.440941 -1.719745 2.231844 13.270408 -26.540810 -2.156984 -9.811712 1.563584 -30.190159 -1.787926 5.199352 -11.133602 -27.832294 1.316431 -3.092528 -9.194675 -21.930340 -4.392799 31.639524 -0.659210 36.569630 21.882870 -2.540649 10.989079 28.433586 -1.210693 -3.132555 -4.600391 -6.894461 4.399630 6.912800 26.679939 -3.388782 0.189717 -8.174258 -12.274312 -1.961452 -10.307722 -3.318463 4.451954 -16.088581 -0.701755 -1.310427 27.042048 0.715064 -0.415425 0.566986 24.101391 3.431693 -10.052238 3.588158 -0.472490 
